#!OML:ASF E:\motion texture\Top Level 1\Subject 1\Session 1\male.ASF
:FULLY-SPECIFIED
:DEGREES
330
root -7.65305 17.7991 6.70327 172.691 -70.7966 -167.339
lowerback 0.94598 -2.00664 3.74804
upperback -0.889914 -2.79287 6.66538
thorax -1.28763 -1.51013 4.84946
lowerneck -18.7354 -0.361847 -3.44345
upperneck 12.8586 -0.29044 4.09016
head 7.00966 0.0662278 1.86353
rclavicle 7.85199e-015 1.04958e-013
rhumerus 7.84636 -0.848677 -80.5889
rradius 76.6017
rwrist -13.972
rhand -5.59783 -25.6351
rfingers 7.12502
rthumb 20.2189 -54.6028
lclavicle 7.85199e-015 1.04958e-013
lhumerus 41.0321 -40.0583 72.42
lradius 52.1996
lwrist -42.4696
lhand -38.7572 21.0945
lfingers 7.12502
lthumb -11.7696 50.7439
rfemur -17.2522 0.415807 20.6584
rtibia 54.4186
rfoot -0.175291 -10.0544
rtoes -3.79546
lfemur -24.9538 2.37012 -16.686
ltibia 23.8824
lfoot -4.7187 6.78454
ltoes 1.51459
331
root -7.81106 17.7965 6.69496 173.231 -70.781 -168.06
lowerback 1.01709 -2.08486 3.55819
upperback -0.814409 -2.8901 6.527
thorax -1.24222 -1.55272 4.81278
lowerneck -18.6773 -0.239319 -3.35742
upperneck 12.9588 -0.135142 3.99503
head 7.02614 0.13571 1.83638
rclavicle 2.8128e-014 -3.02153e-014
rhumerus 5.84846 -0.665517 -80.5175
rradius 77.5905
rwrist -15.7687
rhand -4.46463 -26.8936
rfingers 7.12502
rthumb 21.3077 -55.7422
lclavicle 2.8128e-014 -3.02153e-014
lhumerus 39.2994 -40.9663 72.9431
lradius 52.9036
lwrist -43.2686
lhand -39.3038 21.7025
lfingers 7.12502
lthumb -12.2966 51.3209
rfemur -18.0802 0.30026 20.3202
rtibia 55.7835
rfoot 0.525527 -10.1926
rtoes -3.13027
lfemur -24.4726 2.40815 -17.1256
ltibia 24.2454
lfoot -4.89972 6.51365
ltoes 2.1385
332
root -7.96796 17.7952 6.68631 173.779 -70.7779 -168.783
lowerback 1.08677 -2.16173 3.3689
upperback -0.740921 -2.98598 6.39037
thorax -1.19798 -1.59492 4.77783
lowerneck -18.6177 -0.116704 -3.27032
upperneck 13.0519 0.0211204 3.8956
head 7.04029 0.205276 1.80765
rclavicle -8.54774e-014 9.38264e-014
rhumerus 3.88486 -0.427999 -80.4506
rradius 78.5422
rwrist -17.5664
rhand -3.46003 -28.2379
rfingers 7.12502
rthumb 22.2724 -56.9745
lclavicle -8.54774e-014 9.38264e-014
lhumerus 37.538 -41.8655 73.508
lradius 53.5757
lwrist -44.0637
lhand -39.8342 22.2822
lfingers 7.12502
lthumb -12.808 51.8693
rfemur -18.9314 0.183937 19.994
rtibia 57.0775
rfoot 1.17077 -10.3358
rtoes -2.45555
lfemur -23.9683 2.43005 -17.5652
ltibia 24.5612
lfoot -5.09897 6.25099
ltoes 2.72709
333
root -8.12381 17.7953 6.67729 174.337 -70.7842 -169.506
lowerback 1.15527 -2.23588 3.18078
upperback -0.668549 -3.0787 6.25521
thorax -1.15427 -1.63583 4.74392
lowerneck -18.5573 0.00539169 -3.18362
upperneck 13.1399 0.17736 3.79478
head 7.05297 0.274657 1.77843
rclavicle -5.66536e-014 9.54166e-015
rhumerus 1.96233 -0.141849 -80.3951
rradius 79.4511
rwrist -19.3489
rhand -2.5986 -29.6602
rfingers 7.12502
rthumb 23.0992 -58.2955
lclavicle -5.66536e-014 9.54166e-015
lhumerus 35.7517 -42.7591 74.1126
lradius 54.2147
lwrist -44.8486
lhand -40.348 22.8638
lfingers 7.12502
lthumb -13.3033 52.4192
rfemur -19.7981 0.0695158 19.6804
rtibia 58.2908
rfoot 1.75453 -10.4836
rtoes -1.77771
lfemur -23.4368 2.43725 -18.0035
ltibia 24.8236
lfoot -5.31788 5.9971
ltoes 3.27929
334
root -8.27843 17.7966 6.66781 174.901 -70.806 -170.224
lowerback 1.21956 -2.30911 2.99352
upperback -0.599739 -3.17076 6.1232
thorax -1.11163 -1.6767 4.71293
lowerneck -18.4953 0.126289 -3.09817
upperneck 13.2222 0.332786 3.69302
head 7.06384 0.343469 1.74891
rclavicle 5.65542e-014 5.725e-014
rhumerus 0.0845343 0.191441 -80.3538
rradius 80.3132
rwrist -21.1015
rhand -1.89813 -31.1408
rfingers 7.12502
rthumb 23.7711 -59.6904
lclavicle 5.65542e-014 5.725e-014
lhumerus 33.9407 -43.6442 74.7609
lradius 54.8188
lwrist -45.6139
lhand -40.8412 23.4395
lfingers 7.12502
lthumb -13.7786 52.9632
rfemur -20.6806 -0.0486276 19.3818
rtibia 59.4145
rfoot 2.27428 -10.6384
rtoes -1.10746
lfemur -22.8876 2.42734 -18.4394
ltibia 25.0335
lfoot -5.55557 5.74769
ltoes 3.79737
335
root -8.43182 17.7991 6.65791 175.467 -70.8409 -170.932
lowerback 1.27955 -2.38055 2.80997
upperback -0.531982 -3.26115 5.99429
thorax -1.06765 -1.71708 4.68309
lowerneck -18.4353 0.245618 -3.01386
upperneck 13.2998 0.486758 3.59131
head 7.07388 0.411541 1.71937
rclavicle -5.59579e-014 -1.59028e-015
rhumerus -1.74127 0.568083 -80.331
rradius 81.1238
rwrist -22.8084
rhand -1.30646 -32.6623
rfingers 7.12502
rthumb 24.3384 -61.1369
lclavicle -5.59579e-014 -1.59028e-015
lhumerus 32.1081 -44.5169 75.4534
lradius 55.3862
lwrist -46.3604
lhand -41.3131 24.009
lfingers 7.12502
lthumb -14.2333 53.5013
rfemur -21.5717 -0.168598 19.1007
rtibia 60.4399
rfoot 2.72715 -10.8001
rtoes -0.452244
lfemur -22.3185 2.40184 -18.8698
ltibia 25.1884
lfoot -5.80995 5.50376
ltoes 4.27983
336
root -8.5839 17.8026 6.64758 176.03 -70.889 -171.624
lowerback 1.33463 -2.45 2.63184
upperback -0.465876 -3.34955 5.86939
thorax -1.02265 -1.75682 4.6543
lowerneck -18.3762 0.362859 -2.93009
upperneck 13.3719 0.638418 3.48943
head 7.08265 0.478464 1.68951
rclavicle -1.63997e-014 1.43125e-014
rhumerus -3.51154 0.987081 -80.3297
rradius 81.881
rwrist -24.4635
rhand -0.871258 -34.2049
rfingers 7.12502
rthumb 24.7556 -62.6229
lclavicle -1.63997e-014 1.43125e-014
lhumerus 30.2552 -45.3736 76.1923
lradius 55.9149
lwrist -47.0795
lhand -41.7611 24.5559
lfingers 7.12502
lthumb -14.665 54.0173
rfemur -22.4682 -0.289921 18.8392
rtibia 61.3601
rfoot 3.1117 -10.9684
rtoes 0.187747
lfemur -21.7324 2.3606 -19.2919
ltibia 25.288
lfoot -6.07858 5.26692
ltoes 4.72358
337
root -8.73469 17.8071 6.63679 176.592 -70.9517 -172.302
lowerback 1.38461 -2.51785 2.45855
upperback -0.401542 -3.43646 5.74846
thorax -0.976617 -1.79616 4.62685
lowerneck -18.318 0.477707 -2.84765
upperneck 13.4389 0.787515 3.38752
head 7.09029 0.544097 1.6595
rclavicle 3.44891e-014 -1.11319e-014
rhumerus -5.22355 1.44849 -80.3514
rradius 82.5831
rwrist -26.0597
rhand -0.611497 -35.748
rfingers 7.12502
rthumb 25.0045 -64.1316
lclavicle 3.44891e-014 -1.11319e-014
lhumerus 28.3707 -46.203 76.9966
lradius 56.3994
lwrist -47.78
lhand -42.1823 25.0584
lfingers 7.12502
lthumb -15.0708 54.4898
rfemur -23.3644 -0.414261 18.5962
rtibia 62.1668
rfoot 3.42685 -11.1423
rtoes 0.804872
lfemur -21.1317 2.30518 -19.7069
ltibia 25.3352
lfoot -6.35904 5.03572
ltoes 5.13861
338
root -8.88397 17.8124 6.62551 177.143 -71.0291 -172.954
lowerback 1.43014 -2.58345 2.29272
upperback -0.339291 -3.52094 5.63297
thorax -0.930342 -1.83466 4.6008
lowerneck -18.2621 0.589229 -2.76615
upperneck 13.5004 0.932617 3.28611
head 7.09692 0.607837 1.62928
rclavicle -4.00551e-014 4.29375e-014
rhumerus -6.87269 1.94933 -80.3975
rradius 83.2269
rwrist -27.5831
rhand -0.516394 -37.2822
rfingers 7.12502
rthumb 25.0957 -65.6531
lclavicle -4.00551e-014 4.29375e-014
lhumerus 26.4716 -47.014 77.8416
lradius 56.8467
lwrist -48.4406
lhand -42.5628 25.5209
lfingers 7.12502
lthumb -15.4373 54.9245
rfemur -24.2593 -0.540262 18.3766
rtibia 62.8559
rfoot 3.67262 -11.3235
rtoes 1.40024
lfemur -20.5226 2.23712 -20.1089
ltibia 25.3352
lfoot -6.64995 4.81279
ltoes 5.52344
339
root -9.0318 17.8184 6.61377 177.686 -71.1206 -173.582
lowerback 1.47042 -2.64625 2.1349
upperback -0.279752 -3.60217 5.52251
thorax -0.884162 -1.87188 4.57535
lowerneck -18.2062 0.696758 -2.68608
upperneck 13.555 1.07274 3.1861
head 7.10173 0.669263 1.5991
rclavicle 5.24792e-014 0
rhumerus -8.45835 2.48652 -80.4686
rradius 83.8116
rwrist -29.0234
rhand -0.577546 -38.7975
rfingers 7.12502
rthumb 25.0371 -67.1766
lclavicle 5.24792e-014 0
lhumerus 24.5456 -47.7934 78.7473
lradius 57.2512
lwrist -49.0713
lhand -42.9119 25.9131
lfingers 7.12502
lthumb -15.7735 55.2904
rfemur -25.1489 -0.667931 18.1788
rtibia 63.4202
rfoot 3.85077 -11.5103
rtoes 1.97037
lfemur -19.9085 2.1578 -20.4988
ltibia 25.2929
lfoot -6.95379 4.60093
ltoes 5.87759
340
root -9.17808 17.8249 6.60146 178.217 -71.229 -174.181
lowerback 1.50619 -2.7067 1.98478
upperback -0.222146 -3.6807 5.41694
thorax -0.837654 -1.90807 4.55053
lowerneck -18.1555 0.799339 -2.60593
upperneck 13.6056 1.20612 3.08811
head 7.10658 0.727701 1.56881
rclavicle -8.05078e-015 3.18055e-014
rhumerus -9.97611 3.05492 -80.5661
rradius 84.3355
rwrist -30.3731
rhand -0.771999 -40.2854
rfingers 7.12502
rthumb 24.8507 -68.6903
lclavicle -8.05078e-015 3.18055e-014
lhumerus 22.5915 -48.5342 79.716
lradius 57.615
lwrist -49.6658
lhand -43.2222 26.2125
lfingers 7.12502
lthumb -16.0723 55.5659
rfemur -26.0275 -0.798256 18.0038
rtibia 63.8532
rfoot 3.96263 -11.7035
rtoes 2.51714
lfemur -19.2918 2.06597 -20.8747
ltibia 25.213
lfoot -7.27735 4.40128
ltoes 6.19184
341
root -9.32297 17.8319 6.58855 178.739 -71.3539 -174.758
lowerback 1.53566 -2.76453 1.84144
upperback -0.165962 -3.75627 5.31597
thorax -0.789282 -1.94308 4.52638
lowerneck -18.1066 0.896461 -2.52691
upperneck 13.6497 1.33213 2.99327
head 7.11005 0.782879 1.53884
rclavicle -1.98785e-016 -3.65764e-014
rhumerus -11.4256 3.65175 -80.6891
rradius 84.7978
rwrist -31.6248
rhand -1.09345 -41.727
rfingers 7.12502
rthumb 24.5426 -70.1741
lclavicle -1.98785e-016 -3.65764e-014
lhumerus 20.6136 -49.2363 80.7403
lradius 57.9436
lwrist -50.2138
lhand -43.4851 26.4181
lfingers 7.12502
lthumb -16.3255 55.7509
rfemur -26.8888 -0.931365 17.8486
rtibia 64.1486
rfoot 4.01023 -11.902
rtoes 3.04122
lfemur -18.6724 1.96106 -21.2385
ltibia 25.0979
lfoot -7.62145 4.21069
ltoes 6.47324
342
root -9.4664 17.8392 6.57499 179.247 -71.4956 -175.304
lowerback 1.55998 -2.81883 1.70556
upperback -0.112389 -3.8275 5.22062
thorax -0.740996 -1.97622 4.50366
lowerneck -18.0584 0.987236 -2.45152
upperneck 13.6879 1.44973 2.90395
head 7.1121 0.834382 1.51025
rclavicle -1.69166e-013 6.83819e-014
rhumerus -12.8065 4.26965 -80.8355
rradius 85.1972
rwrist -32.7693
rhand -1.52088 -43.1097
rfingers 7.12502
rthumb 24.1329 -71.6118
lclavicle -1.69166e-013 6.83819e-014
lhumerus 18.6149 -49.8974 81.8163
lradius 58.2379
lwrist -50.717
lhand -43.7015 26.5291
lfingers 7.12502
lthumb -16.5338 55.8447
rfemur -27.7296 -1.06653 17.7156
rtibia 64.302
rfoot 3.99424 -12.1033
rtoes 3.53492
lfemur -18.0535 1.8467 -21.5862
ltibia 24.9521
lfoot -7.9765 4.02834
ltoes 6.67207
343
root -9.6084 17.8466 6.56072 179.739 -71.6565 -175.819
lowerback 1.57902 -2.87037 1.57668
upperback -0.0605793 -3.89543 5.13084
thorax -0.691764 -2.00799 4.48255
lowerneck -18.0096 1.07105 -2.37972
upperneck 13.7182 1.55815 2.81964
head 7.1119 0.881806 1.48277
rclavicle -1.30204e-014 -8.5875e-014
rhumerus -14.1171 4.90436 -81.0039
rradius 85.5325
rwrist -33.8002
rhand -2.03261 -44.4222
rfingers 7.12502
rthumb 23.6421 -72.9885
lclavicle -1.30204e-014 -8.5875e-014
lhumerus 16.5901 -50.5037 82.9516
lradius 58.4963
lwrist -51.1907
lhand -43.875 26.5308
lfingers 7.12502
lthumb -16.7009 55.8324
rfemur -28.5436 -1.20476 17.6032
rtibia 64.3084
rfoot 3.91678 -12.3064
rtoes 4.00324
lfemur -17.4355 1.72293 -21.918
ltibia 24.7783
lfoot -8.33006 3.85067
ltoes 6.81756
